<svg version="1.1" xmlns="http://www.w3.org/2000/svg" xmlns:xlink="http://www.w3.org/1999/xlink">
	<symbol id="titulo" viewBox="0 0 0 0" preserveAspectRatio="xMinYMid">
		<title>Título</title>
		<desc></desc>
	</symbol>
	<symbol id="logo" viewBox="0 0 0 0" preserveAspectRatio="xMinYMin">
		<title>Logo</title>
	</symbol>
	<symbol id="cruz" viewBox="0 0 256 256" preserveAspectRatio="xMinYMid">
		<title>Cruz</title>
		<polygon points="256,211.2 172.7,128 256,44.7 211.2,0 128,83.2 44.8,0 0,44.7 83.3,128 0,211.2 44.7,256 128,172.7 211.3,256"/>
	</symbol>
	<symbol id="facebook" viewBox="0 0 133 256" preserveAspectRatio="xMinYMid">
		<title>Facebook</title>
		<path d="M86.3,256V139.2h39.2l5.9-45.5H86.3V64.7c0-13.2,3.7-22.2,22.6-22.2l24.1,0V1.8C128.8,1.2,114.5,0,97.9,0C63.1,0,39.3,21.2,39.3,60.2v33.6H0v45.5h39.3V256H86.3z"/>
	</symbol>
	<symbol id="feed" viewBox="0 0 256 256" preserveAspectRatio="xMinYMid">
		<title>Feed</title>
		<circle cx="35.1" cy="220.9" r="35.1"/>
		<path d="M169.7,256H120c0-66.2-53.7-120-120-120l0,0V86.3C93.7,86.3,169.7,162.3,169.7,256z"/>
		<path d="M204.8,256C204.8,142.9,113.1,51.2,0,51.2V0c141.4,0,256,114.6,256,256H204.8z"/>
	</symbol>
	<symbol id="google-plus" viewBox="0 0 256 245" preserveAspectRatio="xMinYMid">
		<title>Google Plus</title>
		<path d="M116.1,11.6c2,1.3,4.3,3.1,6.8,5.5c2.4,2.5,4.8,5.6,7.1,9.3c2.2,3.5,4.2,7.5,5.9,12.2c1.4,4.7,2.1,10.2,2.1,16.5c-0.2,11.5-2.7,20.7-7.6,27.6c-2.4,3.4-4.9,6.4-7.6,9.3c-3,2.8-6.1,5.7-9.4,8.6c-1.9,2-3.7,4.2-5.3,6.7c-1.9,2.6-2.9,5.7-2.9,9.1c0,3.3,1,6.1,2.9,8.3c1.7,2.1,3.3,3.9,4.8,5.5l10.9,8.9c6.8,5.5,12.7,11.7,17.8,18.4c4.8,6.8,7.3,15.7,7.5,26.7c0,15.6-6.9,29.4-20.6,41.4C114.3,238.1,93.8,244.6,67,245c-22.4-0.2-39.2-5-50.3-14.4C5.6,221.8,0,211.3,0,199.1c0-6,1.8-12.6,5.4-19.9c3.5-7.3,9.9-13.7,19.1-19.3C35,154,45.9,150,57.3,148c11.3-1.7,20.7-2.6,28.2-2.8c-2.3-3.1-4.4-6.3-6.2-9.8c-2.1-3.4-3.2-7.4-3.2-12.2c0-2.8,0.4-5.2,1.2-7.1c0.7-2,1.4-3.8,2-5.5c-3.6,0.4-7.1,0.6-10.3,0.6c-17.1-0.2-30.1-5.6-39-16.2c-9.4-9.8-14-21.3-14-34.4c0-15.8,6.6-30.1,19.9-43C45,10.2,54.4,5.3,64.2,3C74,1,83.1,0,91.6,0h64.1l-19.8,11.6H116.1z M128.5,196.8c0-8.2-2.7-15.3-8-21.3c-5.6-5.8-14.4-12.8-26.3-21.2c-2-0.2-4.4-0.3-7.2-0.3c-1.6-0.2-5.8,0-12.5,0.6c-6.6,0.9-13.4,2.5-20.3,4.6c-1.6,0.6-3.9,1.6-6.9,2.8c-3,1.4-6,3.3-9,5.8c-3,2.6-5.5,5.9-7.5,9.7c-2.3,4.1-3.5,9-3.5,14.8c0,11.3,5.1,20.6,15.3,27.9c9.7,7.3,23,11.1,39.8,11.3c15.1-0.2,26.6-3.6,34.6-10C124.6,215.1,128.5,206.9,128.5,196.8z M83.8,102.5c8.4-0.3,15.5-3.4,21.1-9.1c2.7-4.1,4.5-8.3,5.2-12.6c0.5-4.3,0.7-7.9,0.7-10.9c0-12.7-3.2-25.5-9.7-38.4c-3-6.2-7-11.2-12-15.1c-5-3.7-10.9-5.6-17.4-5.8c-8.7,0.2-15.9,3.7-21.7,10.5c-4.9,7.1-7.2,15.1-7,23.9c0,11.6,3.4,23.8,10.2,36.3c3.3,5.9,7.5,10.9,12.7,14.9C71.2,100.5,77.1,102.5,83.8,102.5z"/>
		<polygon points="256,99.9 221.9,99.9 221.9,65.8 202.2,65.8 202.2,99.9 168.1,99.9 168.1,119.6 202.2,119.6 202.2,153.7 221.9,153.7 221.9,119.6 256,119.6"/>
	</symbol>
	<symbol id="instagram" viewBox="0 0 256 256" preserveAspectRatio="xMinYMid">
		<title>Instagram</title>
		<path d="M226.5,108.3h-22.3c1.6,6.3,2.6,12.9,2.6,19.7c0,43.5-35.3,78.8-78.8,78.8c-43.5,0-78.8-35.3-78.8-78.8c0-6.8,1-13.4,2.6-19.7H29.5v108.3c0,5.4,4.4,9.8,9.9,9.8h177.2c5.4,0,9.9-4.4,9.9-9.8V108.3zM226.5,39.4c0-5.4-4.4-9.8-9.9-9.8h-29.5c-5.4,0-9.8,4.4-9.8,9.8v29.5c0,5.4,4.4,9.8,9.8,9.8h29.5c5.4,0,9.9-4.4,9.9-9.8V39.4zM128,78.8c-27.2,0-49.2,22-49.2,49.2c0,27.2,22,49.2,49.2,49.2s49.2-22,49.2-49.2C177.2,100.8,155.2,78.8,128,78.8 M226.5,256H29.5C13.2,256,0,242.8,0,226.5V29.5C0,13.2,13.2,0,29.5,0h196.9C242.8,0,256,13.2,256,29.5v196.9C256,242.8,242.8,256,226.5,256"/>
	</symbol>
	<symbol id="linkedin" viewBox="0 0 256 256" preserveAspectRatio="xMinYMid">
		<title>LinkedIn</title>
		<path d="M4.2,85h53.1v171H4.2V85z M30.8,0c17,0,30.7,13.8,30.7,30.8c0,17-13.8,30.8-30.7,30.8C13.7,61.6,0,47.8,0,30.8C0,13.8,13.7,0,30.8,0"/>
		<path d="M90.6,85h50.9v23.4h0.7c7.1-13.4,24.4-27.6,50.2-27.6c53.7,0,63.6,35.4,63.6,81.5V256h-53v-83.1c0-19.8-0.4-45.3-27.6-45.3c-27.6,0-31.8,21.6-31.8,43.9V256h-53V85z"/>
	</symbol>
	<symbol id="myspace" viewBox="0 0 256 153" preserveAspectRatio="xMinYMid">
		<title>Myspace</title>
		<path d="M35.5,93.4c17.9,0,32.3-14.4,32.3-32.2c0-17.8-14.5-32.2-32.3-32.2c-17.9,0-32.3,14.4-32.3,32.2C3.2,79,17.7,93.4,35.5,93.4z"/>
		<path d="M35.5,100.7C15,100.7,0,118.7,0,137.3v12.5l0,0c0,1.8,1.4,3.2,3.2,3.2h1.1h62.3h1.1c1.8,0,3.2-1.5,3.2-3.2l0,0v-12.5C71.1,118.7,56.1,100.7,35.5,100.7z"/>
		<path d="M119.6,86.8c19.8,0,35.9-16,35.9-35.7c0-19.7-16.1-35.7-35.9-35.7c-19.9,0-35.9,16-35.9,35.7C83.7,70.8,99.8,86.8,119.6,86.8z"/>
		<path d="M119.6,94.9c-22.8,0-39.5,20-39.5,40.6v13.9l0,0c0,2,1.6,3.6,3.6,3.6H85h69.3h1.3c2,0,3.6-1.6,3.6-3.6l0,0v-13.9C159.1,114.9,142.4,94.9,119.6,94.9z"/>
		<path d="M212.1,79.4c22,0,39.9-17.8,39.9-39.7C252,17.8,234.2,0,212.1,0c-22.1,0-39.9,17.8-39.9,39.7C172.2,61.6,190.1,79.4,212.1,79.4z"/>
		<path d="M212.1,88.5c-25.3,0-43.9,22.2-43.9,45.1V149l0,0c0,2.2,1.8,4,4,4h1.4h77h1.4c2.2,0,4-1.8,4-4l0,0v-15.4C256,110.7,237.4,88.5,212.1,88.5z"/>
	</symbol>
	<symbol id="pinterest" viewBox="0 0 198 256" preserveAspectRatio="xMinYMid">
		<title>Pinterest</title>
		<path d="M105,0C35.2,0,0,50.1,0,91.9c0,25.3,9.6,47.8,30.1,56.2c3.4,1.4,6.4,0,7.4-3.7c0.7-2.6,2.3-9.1,3-11.8c1-3.7,0.6-5-2.1-8.2c-5.9-7-9.7-16-9.7-28.8c0-37.2,27.8-70.4,72.3-70.4c39.5,0,61.1,24.1,61.1,56.4c0,42.4-18.7,78.2-46.6,78.2c-15.4,0-26.9-12.7-23.2-28.3c4.4-18.6,13-38.7,13-52.2c0-12-6.5-22.1-19.8-22.1c-15.7,0-28.3,16.3-28.3,38.1c0,13.9,4.7,23.3,4.7,23.3s-16.1,68.2-18.9,80.1c-5.6,23.8-0.8,52.9-0.4,55.9c0.2,1.7,2.5,2.2,3.5,0.8c1.4-1.9,20.2-25,26.5-48.1c1.8-6.5,10.3-40.4,10.3-40.4c5.1,9.7,20,18.3,35.9,18.3C166,185,198,141.9,198,84.2C198,40.6,161.1,0,105,0z"/>
	</symbol>
	<symbol id="twitter" viewBox="0 0 256 208" preserveAspectRatio="xMinYMid">
		<title>Twitter</title>
		<path d="M256,24.6c-9.4,4.2-19.5,7-30.2,8.3c10.8-6.5,19.2-16.8,23.1-29.1c-10.1,6-21.4,10.4-33.4,12.7C206,6.4,192.3,0,177.2,0c-29,0-52.5,23.5-52.5,52.5c0,4.1,0.5,8.1,1.4,12C82.4,62.3,43.7,41.4,17.8,9.6c-4.5,7.8-7.1,16.8-7.1,26.4c0,18.2,9.3,34.3,23.4,43.7c-8.6-0.3-16.7-2.6-23.8-6.6c0,0.2,0,0.4,0,0.7c0,25.4,18.1,46.7,42.1,51.5c-4.4,1.2-9,1.8-13.8,1.8c-3.4,0-6.7-0.3-9.9-0.9c6.7,20.9,26.1,36,49.1,36.5c-18,14.1-40.6,22.5-65.2,22.5c-4.2,0-8.4-0.2-12.5-0.7C23.2,199.3,50.9,208,80.5,208c96.6,0,149.4-80,149.4-149.4c0-2.3-0.1-4.5-0.2-6.8C240.1,44.4,249,35.2,256,24.6z"/>
	</symbol>
	<symbol id="vimeo" viewBox="0 0 256 221" preserveAspectRatio="xMinYMid">
		<title>Vimeo</title>
		<path d="M255.9,51.1c-1.1,24.9-18.5,58.9-52.2,102.1c-34.8,45.1-64.3,67.7-88.3,67.7c-14.9,0-27.6-13.7-37.9-41.2c-6.9-25.2-13.8-50.4-20.7-75.6c-7.7-27.5-15.9-41.2-24.7-41.2c-1.9,0-8.6,4-20.1,12L0,59.4c12.6-11.1,25.1-22.2,37.4-33.3C54.2,11.7,66.9,4,75.3,3.2c19.9-1.9,32.2,11.7,36.8,40.8c5,31.4,8.4,50.9,10.3,58.6c5.7,26,12.1,39.1,19,39.1c5.4,0,13.4-8.4,24.1-25.3c10.7-16.9,16.5-29.7,17.2-38.6c1.5-14.6-4.2-21.9-17.2-21.9c-6.1,0-12.4,1.4-18.9,4.2c12.6-41.1,36.6-61.1,72.1-60C245,0.8,257.4,17.8,255.9,51.1z"/>
	</symbol>
	<symbol id="youtube" viewBox="0 0 256 180" preserveAspectRatio="xMinYMid">
		<title>YouTube</title>
		<path d="M253.4,38.8c0,0-2.5-17.6-10.2-25.4c-9.7-10.2-20.6-10.2-25.7-10.8C181.8,0,128.1,0,128.1,0h-0.1c0,0-53.7,0-89.6,2.6c-5,0.6-15.9,0.6-25.7,10.8C5.1,21.2,2.6,38.8,2.6,38.8S0,59.5,0,80.3v19.4c0,20.7,2.6,41.4,2.6,41.4s2.5,17.6,10.2,25.4c9.7,10.2,22.5,9.9,28.2,10.9c20.5,2,87,2.6,87,2.6s53.8-0.1,89.6-2.7c5-0.6,15.9-0.6,25.7-10.8c7.7-7.8,10.2-25.4,10.2-25.4s2.6-20.7,2.6-41.4V80.3C256,59.5,253.4,38.8,253.4,38.8z M101.6,123.2l0-71.9l69.2,36.1L101.6,123.2z"/>
	</symbol>
</svg>