<svg version="1.1" xmlns="http://www.w3.org/2000/svg" xmlns:xlink="http://www.w3.org/1999/xlink">
	<symbol id="cross" viewBox="0 0 24 24">
		<title>Cross</title>
		<path d="M24,20.2L15.7,12l8.2-8.3L20.2,0L12,8.3L3.7,0.1L0,3.8L8.3,12l-8.2,8.3L3.8,24l8.2-8.3l8.3,8.2L24,20.2z"/>
	</symbol>
	<symbol id="cross-thin" viewBox="0 0 24 24">
		<title>Cross</title>
		<polygon points="12,13.9 22.1,23.9 24,22 13.9,12 23.9,1.9 22,0 12,10.1 1.9,0.1 0,2 10.1,12 0.1,22.1 2,24"/>
	</symbol>
	<symbol id="iso-android" viewBox="0 0 215 254">
		<title>Android</title>
		<path d="M15.7,82.2C7,82.2,0,89.2,0,97.8l0,65.6c0,8.7,7,15.7,15.7,15.7c8.7,0,15.7-7,15.7-15.7l0-65.7C31.4,89.2,24.3,82.2,15.7,82.2 M142.1,23.2l10.9-20c0.6-1,0.2-2.4-0.9-3c-1.1-0.6-2.4-0.2-2.9,0.9l-11.1,20.2c-9.3-4.1-19.7-6.5-30.7-6.4c-11,0-21.4,2.3-30.6,6.4L65.7,1.2c-0.6-1.1-1.9-1.4-2.9-0.9c-1.1,0.6-1.5,1.9-0.9,2.9l10.9,20c-21.5,11.1-36,32.2-36,56.5l141.2,0C178.1,55.4,163.6,34.3,142.1,23.2 M75.3,54.1c-3.3,0-5.9-2.7-5.9-5.9c0-3.3,2.6-5.9,5.9-5.9c3.3,0,5.9,2.7,5.9,5.9C81.3,51.4,78.6,54.1,75.3,54.1 M139.6,54.1c-3.3,0-5.9-2.6-5.9-5.9c0-3.2,2.7-5.9,5.9-5.9c3.2,0,5.9,2.7,5.9,5.9C145.6,51.4,142.9,54.1,139.6,54.1 M37.4,85.1l0,101.7c0,9.3,7.5,16.7,16.7,16.7l11.4,0l0,34.7c0,8.6,7,15.7,15.7,15.7c8.7,0,15.7-7,15.7-15.7l0-34.7l21.2,0l0,34.7c0,8.6,7,15.7,15.7,15.7c8.7,0,15.7-7,15.7-15.7l0-34.7l11.4,0c9.2,0,16.7-7.5,16.7-16.7l0-101.7L37.4,85.1z M215,97.8c0-8.7-7-15.7-15.7-15.7c-8.7,0-15.7,7-15.7,15.7l0,65.6c0,8.7,7,15.7,15.7,15.7c8.7,0,15.7-7,15.7-15.7L215,97.8z"/>
	</symbol>
	<symbol id="iso-apple" viewBox="0 0 192 236">
		<title>Apple</title>
		<path d="M160.4,125.5c-0.3-29.8,24.4-44.3,25.5-45c-14-20.4-35.6-23.2-43.3-23.4C124.4,55.2,106.8,68,97.5,68c-9.5,0-23.7-10.7-39.1-10.4C38.6,57.9,20.1,69.4,10,87.2c-21,36.3-5.3,89.6,14.8,119c10,14.4,21.8,30.4,37.1,29.8c15-0.6,20.6-9.6,38.8-9.6c18,0,23.2,9.6,38.9,9.2c16.1-0.3,26.3-14.4,36-28.9c11.6-16.5,16.3-32.7,16.5-33.5C191.6,173.1,160.7,161.2,160.4,125.5z"/>
		<path d="M130.8,37.8C138.8,27.7,144.4,14,142.8,0c-11.7,0.5-26.3,8.1-34.8,18c-7.5,8.7-14.1,23-12.4,36.4C108.8,55.4,122.3,47.8,130.8,37.8z"/>
	</symbol>
	<symbol id="iso-facebook" viewBox="0 0 94 181">
		<title>Facebook</title>
		<path d="M61,181V98.4h27.7l4.1-32.2H61V45.7c0-9.3,2.6-15.7,15.9-15.7l17,0V1.3C91.1,0.9,80.9,0,69.2,0C44.6,0,27.8,15,27.8,42.5v23.7H0v32.2h27.8V181H61z"/>
	</symbol>
	<symbol id="iso-feed" viewBox="0 0 256 256">
		<title>Feed</title>
		<circle cx="35" cy="221" r="35"/>
		<path d="M170,256h-49.8c0-66.4-53.8-120.2-120.2-120.2l0,0V86C93.9,86,170,162.1,170,256z"/>
		<path d="M204.8,256C204.8,142.9,113.1,51.2,0,51.2V0c141.4,0,256,114.6,256,256H204.8z"/>
	</symbol>
	<symbol id="iso-google-plus" viewBox="0 0 214 136">
		<title>Google Plus</title>
		<path d="M0,68.1c-0.6,28.4,19,55.4,45.8,64.3c25.3,8.5,56.5,2.1,73.3-19.5c12.3-15.2,15.1-35.4,13.8-54.4c-21.7-0.2-43.4-0.1-65-0.1c0,7.7,0,15.4,0,23.1c13,0.4,26,0.2,39,0.5c-3.3,11.2-10.7,21.7-22.1,25.7c-21.9,9.6-49.8-3-56.7-25.9c-8.3-22,5.3-48.5,27.8-54.9c13.9-4.9,28.3,0.6,40.2,7.9c6-5.6,11.7-11.7,17.2-17.8C99.8,5.6,82.4-1.3,64.5,0.2C29.4,0.6-1.3,33,0,68.1z"/>
		<path d="M175.1,38.9c-0.1,6.5-0.1,13-0.2,19.4c-6.5,0.1-13,0.1-19.4,0.1c0,6.5,0,12.9,0,19.3c6.5,0,13,0.1,19.4,0.1c0.1,6.5,0.1,12.9,0.1,19.4c6.4,0,12.9,0,19.3,0c0-6.5,0.1-13,0.1-19.4c6.5,0,13-0.1,19.4-0.1c0-6.5,0-12.9,0-19.3c-6.5,0-13-0.1-19.4-0.1c0-6.5-0.1-13-0.1-19.4C188,38.9,181.6,38.9,175.1,38.9z"/>
	</symbol>
	<symbol id="iso-instagram" viewBox="0 0 256 256">
		<title>Instagram</title>
		<path d="M128,23.1c34.2,0,38.2,0.1,51.7,0.7c12.5,0.6,19.3,2.7,23.8,4.4c6,2.3,10.2,5.1,14.7,9.6c4.5,4.5,7.3,8.7,9.6,14.7c1.8,4.5,3.8,11.3,4.4,23.8c0.6,13.5,0.7,17.5,0.7,51.7s-0.1,38.2-0.7,51.7c-0.6,12.5-2.7,19.3-4.4,23.8c-2.3,6-5.1,10.2-9.6,14.7c-4.5,4.5-8.7,7.3-14.7,9.6c-4.5,1.8-11.3,3.8-23.8,4.4c-13.5,0.6-17.5,0.7-51.7,0.7s-38.2-0.1-51.7-0.7c-12.5-0.6-19.3-2.7-23.8-4.4c-6-2.3-10.2-5.1-14.7-9.6c-4.5-4.5-7.3-8.7-9.6-14.7c-1.8-4.5-3.8-11.3-4.4-23.8c-0.6-13.5-0.7-17.5-0.7-51.7s0.1-38.2,0.7-51.7c0.6-12.5,2.7-19.3,4.4-23.8c2.3-6,5.1-10.2,9.6-14.7c4.5-4.5,8.7-7.3,14.7-9.6c4.5-1.8,11.3-3.8,23.8-4.4C89.8,23.2,93.8,23.1,128,23.1 M128,0C93.2,0,88.9,0.1,75.2,0.8C61.6,1.4,52.3,3.6,44.2,6.7c-8.4,3.3-15.6,7.6-22.7,14.8C14.4,28.6,10,35.7,6.7,44.2c-3.2,8.1-5.3,17.4-5.9,31.1C0.1,88.9,0,93.2,0,128c0,34.8,0.1,39.1,0.8,52.8c0.6,13.6,2.8,22.9,5.9,31.1c3.3,8.4,7.6,15.6,14.8,22.7c7.1,7.1,14.3,11.5,22.7,14.8c8.1,3.2,17.4,5.3,31.1,5.9c13.7,0.6,18,0.8,52.8,0.8s39.1-0.1,52.8-0.8c13.6-0.6,22.9-2.8,31.1-5.9c8.4-3.3,15.6-7.6,22.7-14.8c7.1-7.1,11.5-14.3,14.8-22.7c3.2-8.1,5.3-17.4,5.9-31.1c0.6-13.7,0.8-18,0.8-52.8s-0.1-39.1-0.8-52.8c-0.6-13.6-2.8-22.9-5.9-31.1c-3.3-8.4-7.6-15.6-14.8-22.7c-7.1-7.1-14.3-11.5-22.7-14.8c-8.1-3.2-17.4-5.3-31.1-5.9C167.1,0.1,162.8,0,128,0L128,0z"/>
		<path d="M128,62.3c-36.3,0-65.7,29.4-65.7,65.7c0,36.3,29.4,65.7,65.7,65.7s65.7-29.4,65.7-65.7C193.7,91.7,164.3,62.3,128,62.3z M128,170.7c-23.6,0-42.7-19.1-42.7-42.7c0-23.6,19.1-42.7,42.7-42.7c23.6,0,42.7,19.1,42.7,42.7C170.7,151.6,151.6,170.7,128,170.7z"/>
		<circle cx="196.3" cy="59.7" r="15.4"/>
	</symbol>
	<symbol id="iso-linkedin" viewBox="0 0 255 255">
		<title>LinkedIn</title>
		<rect x="4" y="84" width="53" height="171"/>
		<path d="M30.5,0C47.3,0,61,13.7,61,30.5C61,47.3,47.3,61,30.5,61C13.6,61,0,47.3,0,30.5C0,13.7,13.6,0,30.5,0"/>
		<path d="M90,84.3h50.8v23.3h0.7c7.1-13.4,24.3-27.6,50.1-27.6c53.5,0,63.4,35.4,63.4,81.3V255h-52.9v-83c0-19.8-0.4-45.3-27.5-45.3c-27.5,0-31.7,21.6-31.7,43.8V255H90V84.3z"/>
	</symbol>
	<symbol id="iso-pinterest" viewBox="0 0 144 186">
		<title>Pinterest</title>
		<path d="M76.4,0C25.6,0,0,36.4,0,66.7c0,18.4,7,34.7,21.9,40.8c2.4,1,4.6,0,5.3-2.7c0.5-1.9,1.7-6.6,2.2-8.6c0.7-2.7,0.4-3.6-1.5-6c-4.3-5.1-7.1-11.6-7.1-21c0-27,20.2-51.2,52.6-51.2c28.7,0,44.5,17.5,44.5,40.9C117.9,90,104.2,116,84,116c-11.2,0-19.5-9.2-16.9-20.6c3.2-13.5,9.4-28.1,9.4-37.9c0-8.7-4.7-16-14.4-16c-11.4,0-20.6,11.8-20.6,27.7C41.6,79.2,45,86,45,86s-11.7,49.5-13.7,58.2c-4.1,17.3-0.6,38.5-0.3,40.6c0.2,1.3,1.8,1.6,2.5,0.6c1.1-1.4,14.7-18.2,19.3-35c1.3-4.8,7.5-29.4,7.5-29.4c3.7,7.1,14.6,13.3,26.1,13.3c34.3,0,57.6-31.3,57.6-73.2C144,29.5,117.2,0,76.4,0z"/>
	</symbol>
	<symbol id="iso-spotify" viewBox="0 0 166 110">
		<title>Spotify</title>
		<path d="M134,106.5c-2.1,3.4-6.6,4.5-10,2.4C96.7,92.2,62.2,88.4,21.6,97.7c-3.9,0.9-7.8-1.6-8.7-5.5c-0.9-3.9,1.5-7.8,5.5-8.7c44.4-10.2,82.5-5.8,113.2,13C135,98.6,136.1,103.1,134,106.5z M148.3,74.8c-2.6,4.3-8.2,5.6-12.5,3C104.5,58.5,56.7,52.9,19.6,64.2c-4.8,1.5-9.9-1.3-11.3-6.1c-1.4-4.8,1.3-9.9,6.1-11.3c42.3-12.9,95-6.6,131,15.5C149.6,64.9,150.9,70.5,148.3,74.8z M149.5,41.7C111.9,19.4,50,17.3,14.1,28.2C8.3,30,2.2,26.7,0.5,20.9C-1.3,15.2,2,9.1,7.7,7.3C48.9-5.2,117.4-2.8,160.7,22.9c5.2,3.1,6.9,9.8,3.8,14.9C161.4,43.1,154.7,44.8,149.5,41.7z"/>
	</symbol>
	<symbol id="iso-tumblr" viewBox="0 0 142 239">
		<title>Tumblr</title>
		<path d="M140.9,224.2c-8.1,8.6-26.8,14.5-43.6,14.8h-1.8c-56.4,0-68.6-41.5-68.6-65.6v-67.2H4.7c-2.6,0-4.7-2.1-4.7-4.7c0,0,0,0,0,0V69.7c0-3.3,2.1-6.3,5.3-7.5c28.9-10.2,38-35.5,39.4-54.7C45,2.5,47.7,0,52.1,0h33.1c2.6,0,4.7,2.1,4.7,4.7v53.8h38.8c2.6,0,4.7,2.1,4.7,4.6v38.2c0,2.6-2.1,4.7-4.7,4.7H89.7V168c0,15.6,10.3,19.9,16.6,19.9c6.1-0.1,12.1-2,15.1-3.2c2.2-0.9,4.2-1.5,5.9-1c1.6,0.4,2.7,1.6,3.4,3.7l10.3,30C142,219.8,142.7,222.4,140.9,224.2z"/>
	</symbol>
	<symbol id="iso-twitter" viewBox="0 0 235 191">
		<title>Twitter</title>
		<path d="M235,22.6c-8.6,3.8-17.9,6.4-27.7,7.6c10-6,17.6-15.4,21.2-26.7c-9.3,5.5-19.6,9.5-30.6,11.7C189.1,5.9,176.6,0,162.7,0c-26.6,0-48.2,21.6-48.2,48.2c0,3.8,0.4,7.5,1.2,11C75.7,57.2,40.1,38,16.4,8.8c-4.2,7.1-6.5,15.4-6.5,24.2c0,16.7,8.5,31.5,21.4,40.1c-7.9-0.3-15.3-2.4-21.8-6c0,0.2,0,0.4,0,0.6c0,23.4,16.6,42.9,38.7,47.3c-4,1.1-8.3,1.7-12.7,1.7c-3.1,0-6.1-0.3-9.1-0.9c6.1,19.2,23.9,33.1,45,33.5C54.9,162.3,34.1,170,11.5,170c-3.9,0-7.7-0.2-11.5-0.7C21.3,183,46.7,191,73.9,191c88.7,0,137.2-73.5,137.2-137.2c0-2.1,0-4.2-0.1-6.2C220.4,40.8,228.5,32.3,235,22.6z"/>
	</symbol>
	<symbol id="iso-vimeo" viewBox="0 0 208 180">
		<title>Vimeo</title>
		<path d="M207.9,41.6c-0.9,20.3-15.1,48-42.4,83.2c-28.3,36.8-52.2,55.2-71.8,55.2c-12.1,0-22.4-11.2-30.8-33.6c-5.6-20.5-11.2-41.1-16.8-61.6c-6.2-22.4-12.9-33.6-20-33.6c-1.6,0-7,3.3-16.3,9.8L0,48.4c10.3-9,20.4-18,30.4-27.1C44,9.5,54.3,3.3,61.2,2.6c16.2-1.6,26.2,9.5,29.9,33.2c4,25.6,6.8,41.5,8.4,47.7c4.7,21.2,9.8,31.8,15.4,31.8c4.4,0,10.9-6.9,19.6-20.6c8.7-13.8,13.4-24.2,14-31.4c1.2-11.9-3.4-17.8-14-17.8c-5,0-10.1,1.1-15.4,3.4C129.3,15.4,148.9-0.9,177.7,0C199.1,0.7,209.1,14.5,207.9,41.6z"/>
	</symbol>
	<symbol id="iso-youtube" viewBox="0 0 176 124">
		<title>YouTube</title>
		<path d="M172.3,19.4c-2-7.6-8-13.6-15.6-15.7C143,0,88,0,88,0S33,0,19.2,3.7c-7.6,2-13.5,8-15.6,15.7C0,33.2,0,62,0,62s0,28.8,3.7,42.6c2,7.6,8,13.6,15.6,15.7C33,124,88,124,88,124s55,0,68.8-3.7c7.6-2,13.5-8,15.6-15.7C176,90.8,176,62,176,62S176,33.2,172.3,19.4z M69.7,88.2V35.8l46,26.2L69.7,88.2z"/>
	</symbol>
</svg>