<svg version="1.1" xmlns="http://www.w3.org/2000/svg" xmlns:xlink="http://www.w3.org/1999/xlink">
	<symbol id="logo" viewBox="0 0 0 0">
		<title>Logo</title>
	</symbol>
	<symbol id="cruz" viewBox="0 0 256 256">
		<title>Cruz</title>
		<polygon points="256,211.2 172.7,128 256,44.7 211.2,0 128,83.2 44.8,0 0,44.7 83.3,128 0,211.2 44.7,256 128,172.7 211.3,256"/>
	</symbol>
	<symbol id="iso-android" viewBox="0 0 215 254">
		<title>Android</title>
		<path d="M15.7,82.2C7,82.2,0,89.2,0,97.8l0,65.6c0,8.7,7,15.7,15.7,15.7c8.7,0,15.7-7,15.7-15.7l0-65.7C31.4,89.2,24.3,82.2,15.7,82.2 M142.1,23.2l10.9-20c0.6-1,0.2-2.4-0.9-3c-1.1-0.6-2.4-0.2-2.9,0.9l-11.1,20.2c-9.3-4.1-19.7-6.5-30.7-6.4c-11,0-21.4,2.3-30.6,6.4L65.7,1.2c-0.6-1.1-1.9-1.4-2.9-0.9c-1.1,0.6-1.5,1.9-0.9,2.9l10.9,20c-21.5,11.1-36,32.2-36,56.5l141.2,0C178.1,55.4,163.6,34.3,142.1,23.2 M75.3,54.1c-3.3,0-5.9-2.7-5.9-5.9c0-3.3,2.6-5.9,5.9-5.9c3.3,0,5.9,2.7,5.9,5.9C81.3,51.4,78.6,54.1,75.3,54.1 M139.6,54.1c-3.3,0-5.9-2.6-5.9-5.9c0-3.2,2.7-5.9,5.9-5.9c3.2,0,5.9,2.7,5.9,5.9C145.6,51.4,142.9,54.1,139.6,54.1 M37.4,85.1l0,101.7c0,9.3,7.5,16.7,16.7,16.7l11.4,0l0,34.7c0,8.6,7,15.7,15.7,15.7c8.7,0,15.7-7,15.7-15.7l0-34.7l21.2,0l0,34.7c0,8.6,7,15.7,15.7,15.7c8.7,0,15.7-7,15.7-15.7l0-34.7l11.4,0c9.2,0,16.7-7.5,16.7-16.7l0-101.7L37.4,85.1z M215,97.8c0-8.7-7-15.7-15.7-15.7c-8.7,0-15.7,7-15.7,15.7l0,65.6c0,8.7,7,15.7,15.7,15.7c8.7,0,15.7-7,15.7-15.7L215,97.8z"/>
	</symbol>
	<symbol id="iso-apple" viewBox="0 0 192 236">
		<title>Apple</title>
		<path d="M160.4,125.5c-0.3-29.8,24.4-44.3,25.5-45c-14-20.4-35.6-23.2-43.3-23.4C124.4,55.2,106.8,68,97.5,68c-9.5,0-23.7-10.7-39.1-10.4C38.6,57.9,20.1,69.4,10,87.2c-21,36.3-5.3,89.6,14.8,119c10,14.4,21.8,30.4,37.1,29.8c15-0.6,20.6-9.6,38.8-9.6c18,0,23.2,9.6,38.9,9.2c16.1-0.3,26.3-14.4,36-28.9c11.6-16.5,16.3-32.7,16.5-33.5C191.6,173.1,160.7,161.2,160.4,125.5z"/>
		<path d="M130.8,37.8C138.8,27.7,144.4,14,142.8,0c-11.7,0.5-26.3,8.1-34.8,18c-7.5,8.7-14.1,23-12.4,36.4C108.8,55.4,122.3,47.8,130.8,37.8z"/>
	</symbol>
	<symbol id="iso-facebook" viewBox="0 0 94 181">
		<title>Facebook</title>
		<path d="M61,181V98.4h27.7l4.1-32.2H61V45.7c0-9.3,2.6-15.7,15.9-15.7l17,0V1.3C91.1,0.9,80.9,0,69.2,0C44.6,0,27.8,15,27.8,42.5v23.7H0v32.2h27.8V181H61z"/>
	</symbol>
	<symbol id="iso-feed" viewBox="0 0 256 256">
		<title>Feed</title>
		<circle cx="35" cy="221" r="35"/>
		<path d="M170,256h-49.8c0-66.4-53.8-120.2-120.2-120.2l0,0V86C93.9,86,170,162.1,170,256z"/>
		<path d="M204.8,256C204.8,142.9,113.1,51.2,0,51.2V0c141.4,0,256,114.6,256,256H204.8z"/>
	</symbol>
	<symbol id="iso-google-plus" viewBox="0 0 254 243">
		<title>Google Plus</title>
		<path d="M114.9,11.5c2,1.2,4.2,3.1,6.7,5.4c2.4,2.5,4.7,5.6,7,9.2c2.2,3.4,4.1,7.5,5.8,12.1c1.4,4.7,2.1,10.1,2.1,16.3C136.3,66,133.8,75.2,129,82c-2.4,3.3-4.9,6.4-7.5,9.2c-2.9,2.8-6,5.7-9.3,8.6c-1.9,2-3.6,4.2-5.2,6.7c-1.9,2.6-2.8,5.6-2.8,9c0,3.3,1,6.1,2.9,8.3c1.6,2.1,3.2,3.9,4.8,5.4l10.8,8.9c6.7,5.5,12.5,11.6,17.6,18.2c4.7,6.7,7.2,15.6,7.4,26.5c0,15.5-6.8,29.2-20.3,41.1c-14.1,12.4-34.4,18.7-60.9,19.1c-22.2-0.2-38.8-5-49.7-14.3C5.5,220,0,209.6,0,197.5c0-5.9,1.8-12.5,5.4-19.7c3.5-7.3,9.8-13.6,18.9-19.1c10.3-5.9,21.1-9.8,32.3-11.8c11.2-1.7,20.5-2.6,27.9-2.8c-2.3-3-4.3-6.3-6.1-9.7c-2.1-3.3-3.1-7.4-3.1-12.1c0-2.8,0.4-5.2,1.2-7c0.7-2,1.3-3.8,1.9-5.5c-3.6,0.4-7,0.6-10.2,0.6c-16.9-0.2-29.7-5.6-38.6-16c-9.3-9.8-13.9-21.1-13.9-34.1c0-15.7,6.6-29.9,19.7-42.7c9-7.5,18.4-12.3,28.1-14.6c9.6-2,18.6-3,27-3H154l-19.6,11.5H114.9z M127.1,195.2c0-8.1-2.6-15.2-7.9-21.2c-5.6-5.7-14.2-12.7-26-21c-2-0.2-4.4-0.3-7.1-0.3c-1.6-0.2-5.8,0-12.4,0.6c-6.6,0.9-13.3,2.4-20.1,4.5c-1.6,0.6-3.9,1.6-6.8,2.8c-2.9,1.3-5.9,3.3-8.9,5.8c-2.9,2.6-5.4,5.8-7.4,9.7c-2.3,4-3.5,8.9-3.5,14.6c0,11.2,5,20.4,15.1,27.7c9.6,7.3,22.7,11,39.4,11.2c14.9-0.2,26.3-3.5,34.2-10C123.3,213.3,127.1,205.2,127.1,195.2z M82.9,101.7c8.3-0.3,15.3-3.3,20.9-9c2.7-4.1,4.4-8.2,5.2-12.5c0.5-4.3,0.7-7.8,0.7-10.8c0-12.6-3.2-25.3-9.6-38.1c-3-6.1-6.9-11.1-11.8-15c-5-3.6-10.7-5.6-17.2-5.8c-8.6,0.2-15.7,3.7-21.4,10.5c-4.8,7.1-7.1,15-6.9,23.7c0,11.5,3.4,23.6,10.1,36c3.2,5.8,7.4,10.8,12.6,14.8C70.5,99.6,76.3,101.7,82.9,101.7z"/>
		<polygon points="254,99.1 219.9,99.1 219.9,65 200.1,65 200.1,99.1 166,99.1 166,118.9 200.1,118.9 200.1,153 219.9,153 219.9,118.9 254,118.9"/>
	</symbol>
	<symbol id="iso-instagram" viewBox="0 0 256 256">
		<title>Instagram</title>
		<path d="M226.5,108.3h-22.3c1.6,6.3,2.6,12.9,2.6,19.7c0,43.5-35.3,78.8-78.8,78.8c-43.5,0-78.8-35.3-78.8-78.8c0-6.8,1-13.4,2.6-19.7H29.5v108.3c0,5.4,4.4,9.8,9.9,9.8h177.2c5.4,0,9.9-4.4,9.9-9.8V108.3z M226.5,39.4c0-5.4-4.4-9.8-9.9-9.8h-29.5c-5.4,0-9.8,4.4-9.8,9.8v29.5c0,5.4,4.4,9.8,9.8,9.8h29.5c5.4,0,9.9-4.4,9.9-9.8V39.4z M128,78.8c-27.2,0-49.2,22-49.2,49.2c0,27.2,22,49.2,49.2,49.2s49.2-22,49.2-49.2C177.2,100.8,155.2,78.8,128,78.8 M226.5,256H29.5C13.2,256,0,242.8,0,226.5V29.5C0,13.2,13.2,0,29.5,0h196.9C242.8,0,256,13.2,256,29.5v196.9C256,242.8,242.8,256,226.5,256"/>
	</symbol>
	<symbol id="iso-linkedin" viewBox="0 0 255 255">
		<title>LinkedIn</title>
		<rect x="4" y="84" width="53" height="171"/>
		<path d="M30.5,0C47.3,0,61,13.7,61,30.5C61,47.3,47.3,61,30.5,61C13.6,61,0,47.3,0,30.5C0,13.7,13.6,0,30.5,0"/>
		<path d="M90,84.3h50.8v23.3h0.7c7.1-13.4,24.3-27.6,50.1-27.6c53.5,0,63.4,35.4,63.4,81.3V255h-52.9v-83c0-19.8-0.4-45.3-27.5-45.3c-27.5,0-31.7,21.6-31.7,43.8V255H90V84.3z"/>
	</symbol>
	<symbol id="iso-pinterest" viewBox="0 0 144 186">
		<title>Pinterest</title>
		<path d="M76.4,0C25.6,0,0,36.4,0,66.7c0,18.4,7,34.7,21.9,40.8c2.4,1,4.6,0,5.3-2.7c0.5-1.9,1.7-6.6,2.2-8.6c0.7-2.7,0.4-3.6-1.5-6c-4.3-5.1-7.1-11.6-7.1-21c0-27,20.2-51.2,52.6-51.2c28.7,0,44.5,17.5,44.5,40.9C117.9,90,104.2,116,84,116c-11.2,0-19.5-9.2-16.9-20.6c3.2-13.5,9.4-28.1,9.4-37.9c0-8.7-4.7-16-14.4-16c-11.4,0-20.6,11.8-20.6,27.7C41.6,79.2,45,86,45,86s-11.7,49.5-13.7,58.2c-4.1,17.3-0.6,38.5-0.3,40.6c0.2,1.3,1.8,1.6,2.5,0.6c1.1-1.4,14.7-18.2,19.3-35c1.3-4.8,7.5-29.4,7.5-29.4c3.7,7.1,14.6,13.3,26.1,13.3c34.3,0,57.6-31.3,57.6-73.2C144,29.5,117.2,0,76.4,0z"/>
	</symbol>
	<symbol id="iso-twitter" viewBox="0 0 235 191">
		<title>Twitter</title>
		<path d="M235,22.6c-8.6,3.8-17.9,6.4-27.7,7.6c10-6,17.6-15.4,21.2-26.7c-9.3,5.5-19.6,9.5-30.6,11.7C189.1,5.9,176.6,0,162.7,0c-26.6,0-48.2,21.6-48.2,48.2c0,3.8,0.4,7.5,1.2,11C75.7,57.2,40.1,38,16.4,8.8c-4.2,7.1-6.5,15.4-6.5,24.2c0,16.7,8.5,31.5,21.4,40.1c-7.9-0.3-15.3-2.4-21.8-6c0,0.2,0,0.4,0,0.6c0,23.4,16.6,42.9,38.7,47.3c-4,1.1-8.3,1.7-12.7,1.7c-3.1,0-6.1-0.3-9.1-0.9c6.1,19.2,23.9,33.1,45,33.5C54.9,162.3,34.1,170,11.5,170c-3.9,0-7.7-0.2-11.5-0.7C21.3,183,46.7,191,73.9,191c88.7,0,137.2-73.5,137.2-137.2c0-2.1,0-4.2-0.1-6.2C220.4,40.8,228.5,32.3,235,22.6z"/>
	</symbol>
	<symbol id="iso-vimeo" viewBox="0 0 208 180">
		<title>Vimeo</title>
		<path d="M207.9,41.6c-0.9,20.3-15.1,48-42.4,83.2c-28.3,36.8-52.2,55.2-71.8,55.2c-12.1,0-22.4-11.2-30.8-33.6c-5.6-20.5-11.2-41.1-16.8-61.6c-6.2-22.4-12.9-33.6-20-33.6c-1.6,0-7,3.3-16.3,9.8L0,48.4c10.3-9,20.4-18,30.4-27.1C44,9.5,54.3,3.3,61.2,2.6c16.2-1.6,26.2,9.5,29.9,33.2c4,25.6,6.8,41.5,8.4,47.7c4.7,21.2,9.8,31.8,15.4,31.8c4.4,0,10.9-6.9,19.6-20.6c8.7-13.8,13.4-24.2,14-31.4c1.2-11.9-3.4-17.8-14-17.8c-5,0-10.1,1.1-15.4,3.4C129.3,15.4,148.9-0.9,177.7,0C199.1,0.7,209.1,14.5,207.9,41.6z"/>
	</symbol>
	<symbol id="iso-youtube" viewBox="0 0 209 147">
		<title>YouTube</title>
		<path d="M206.9,31.7c0,0-2-14.4-8.3-20.7c-7.9-8.3-16.9-8.4-20.9-8.9C148.4,0,104.5,0,104.5,0h-0.1c0,0-43.9,0-73.1,2.1c-4.1,0.5-13,0.5-20.9,8.9c-6.3,6.3-8.3,20.7-8.3,20.7S0,48.6,0,65.5v15.9c0,16.9,2.1,33.8,2.1,33.8s2,14.4,8.3,20.7c8,8.3,18.4,8.1,23,8.9c16.7,1.6,71.1,2.1,71.1,2.1s43.9-0.1,73.2-2.2c4.1-0.5,13-0.5,20.9-8.9c6.3-6.3,8.3-20.7,8.3-20.7s2.1-16.9,2.1-33.8V65.5C209,48.6,206.9,31.7,206.9,31.7z M82.9,100.6l0-58.7l56.5,29.5L82.9,100.6z"/>
	</symbol>
</svg>